<svg xmlns="http://www.w3.org/2000/svg" width="220" height="48" viewBox="0 0 220 48" fill="none">
  <!-- Logo Symbol -->
  <rect x="0" y="4" width="40" height="40" rx="8" fill="#171717"/>
  <path fill="#ffffff" fillRule="evenodd" d="M10 34l13-23l-3-2L5 34H10Z" clipRule="evenodd"/>
  <path fill="#ffffff" fillRule="evenodd" d="M16.5 34H31.5L21.5 20.5l-3 5.5l3 5.5H16.5L13.5 34Z" clipRule="evenodd"/>
  
  <!-- Text: ChronoManager -->
  <path d="M55.26 31.5C53.94 31.5 52.68 31.24 51.48 30.72C50.3 30.18 49.26 29.44 48.36 28.5C47.48 27.56 46.8 26.48 46.32 25.26C45.84 24.04 45.6 22.74 45.6 21.36C45.6 19.98 45.84 18.68 46.32 17.46C46.8 16.24 47.48 15.16 48.36 14.22C49.26 13.28 50.3 12.54 51.48 12C52.68 11.46 53.94 11.2 55.26 11.2C56.96 11.2 58.5 11.56 59.88 12.28C61.28 13 62.42 14.02 63.3 15.34L60.24 17.4C59.64 16.56 58.92 15.92 58.08 15.48C57.26 15.04 56.3 14.82 55.2 14.82C54.34 14.82 53.54 14.98 52.8 15.3C52.08 15.62 51.44 16.06 50.88 16.62C50.34 17.18 49.9 17.84 49.56 18.6C49.24 19.36 49.08 20.18 49.08 21.06C49.08 21.94 49.24 22.76 49.56 23.52C49.9 24.28 50.34 24.94 50.88 25.5C51.44 26.06 52.08 26.5 52.8 26.82C53.54 27.14 54.34 27.3 55.2 27.3C56.3 27.3 57.26 27.06 58.08 26.58C58.92 26.1 59.64 25.42 60.24 24.54L63.3 26.64C62.42 27.96 61.28 29 59.88 29.76C58.5 30.52 56.96 30.9 55.26 30.9V31.5Z" fill="#171717"/>
  <path d="M69.82 30.9C69.08 30.9 68.4 30.62 67.78 30.06C67.18 29.5 66.88 28.82 66.88 28.02V15.12H70.36V27.06H77.72V30.9H69.82Z" fill="#171717"/>
  <path d="M84.83 30.9C83.75 30.9 82.93 30.58 82.37 29.94C81.83 29.28 81.55 28.42 81.55 27.36V18.86H79.49V15.12H81.55V11.66H85.03V15.12H88.43V18.86H85.03V25.5C85.03 25.94 85.13 26.24 85.33 26.4C85.55 26.56 85.87 26.64 86.29 26.64H88.19V30.9H84.83Z" fill="#171717"/>
  <path d="M95.65 30.9C94.57 30.9 93.75 30.58 93.19 29.94C92.65 29.28 92.37 28.42 92.37 27.36V18.86H90.31V15.12H92.37V11.66H95.85V15.12H99.25V18.86H95.85V25.5C95.85 25.94 95.95 26.24 96.15 26.4C96.37 26.56 96.69 26.64 97.11 26.64H99.01V30.9H95.65Z" fill="#171717"/>
  <path d="M107.45 30.9C106.61 30.9 105.87 30.76 105.23 30.48C104.59 30.2 104.05 29.82 103.61 29.34C103.19 28.86 102.87 28.32 102.65 27.72C102.45 27.1 102.35 26.46 102.35 25.8V15.12H105.83V24.42C105.83 25.22 106.01 25.84 106.37 26.28C106.75 26.7 107.33 26.92 108.11 26.92C108.71 26.92 109.25 26.78 109.73 26.5C110.21 26.22 110.59 25.82 110.87 25.3C111.17 24.76 111.31 24.14 111.31 23.44V15.12H114.79V30.9H111.79V29.04C111.31 29.7 110.69 30.2 109.93 30.54C109.17 30.88 108.33 31.04 107.39 31.04L107.45 30.9Z" fill="#171717"/>
  <path d="M128.3 30.9H125.3V29.22C124.82 29.84 124.2 30.32 123.44 30.66C122.68 30.98 121.84 31.14 120.92 31.14C119.98 31.14 119.14 30.98 118.4 30.66C117.68 30.34 117.1 29.9 116.66 29.34C116.22 28.76 115.9 28.1 115.7 27.36C115.52 26.62 115.42 25.84 115.42 25.02V15.12H118.9V24.42C118.9 25.22 119.08 25.84 119.44 26.28C119.82 26.7 120.4 26.92 121.18 26.92C121.86 26.92 122.46 26.76 122.98 26.44C123.5 26.12 123.9 25.7 124.18 25.18C124.48 24.64 124.62 24.04 124.62 23.38V15.12H128.1V30.9H128.3Z" fill="#171717"/>
  <path d="M140.43 30.9H137.43V29.04C136.97 29.68 136.37 30.18 135.63 30.54C134.89 30.9 134.09 31.08 133.23 31.08C132.43 31.08 131.73 30.94 131.13 30.66C130.53 30.38 130.03 29.98 129.63 29.46C129.25 28.94 128.97 28.34 128.77 27.66C128.59 26.98 128.5 26.24 128.5 25.44V15.12H131.98V24.42C131.98 25.22 132.17 25.84 132.55 26.28C132.95 26.7 133.57 26.92 134.43 26.92C135.13 26.92 135.73 26.78 136.23 26.5C136.73 26.22 137.13 25.8 137.43 25.26C137.75 24.72 137.91 24.08 137.91 23.34V15.12H141.39V30.9H140.43Z" fill="#171717"/>
  <path d="M149.61 30.9C148.53 30.9 147.71 30.58 147.15 29.94C146.61 29.28 146.33 28.42 146.33 27.36V18.86H144.27V15.12H146.33V11.66H149.81V15.12H153.21V18.86H149.81V25.5C149.81 25.94 149.91 26.24 150.11 26.4C150.33 26.56 150.65 26.64 151.07 26.64H152.97V30.9H149.61Z" fill="#171717"/>
  <path d="M163.69 31.14C162.31 31.14 161.07 30.88 159.97 30.36C158.89 29.84 158.05 29.1 157.45 28.14C156.85 27.18 156.55 26.02 156.55 24.66C156.55 23.3 156.85 22.14 157.45 21.18C158.05 20.22 158.89 19.48 159.97 18.96C161.07 18.44 162.31 18.18 163.69 18.18C165.07 18.18 166.29 18.44 167.35 18.96C168.43 19.48 169.29 20.22 169.93 21.18C170.57 22.14 170.89 23.3 170.89 24.66C170.89 26.02 170.57 27.18 169.93 28.14C169.29 29.1 168.43 29.84 167.35 30.36C166.29 30.88 165.07 31.14 163.69 31.14ZM163.69 27.42C164.55 27.42 165.27 27.14 165.85 26.58C166.43 26.02 166.71 25.26 166.71 24.3C166.71 23.34 166.43 22.58 165.85 22.02C165.27 21.46 164.55 21.18 163.69 21.18C162.83 21.18 162.11 21.46 161.53 22.02C160.95 22.58 160.67 23.34 160.67 24.3C160.67 25.26 160.95 26.02 161.53 26.58C162.11 27.14 162.83 27.42 163.69 27.42Z" fill="#171717"/>
  <path d="M181.44 31.14C180.06 31.14 178.82 30.88 177.72 30.36C176.64 29.84 175.8 29.1 175.2 28.14C174.6 27.18 174.3 26.02 174.3 24.66C174.3 23.3 174.6 22.14 175.2 21.18C175.8 20.22 176.64 19.48 177.72 18.96C178.82 18.44 180.06 18.18 181.44 18.18C182.82 18.18 184.04 18.44 185.1 18.96C186.18 19.48 187.04 20.22 187.68 21.18C188.32 22.14 188.64 23.3 188.64 24.66C188.64 26.02 188.32 27.18 187.68 28.14C187.04 29.1 186.18 29.84 185.1 30.36C184.04 30.88 182.82 31.14 181.44 31.14ZM181.44 27.42C182.3 27.42 183.02 27.14 183.6 26.58C184.18 26.02 184.46 25.26 184.46 24.3C184.46 23.34 184.18 22.58 183.6 22.02C183.02 21.46 182.3 21.18 181.44 21.18C180.58 21.18 179.86 21.46 179.28 22.02C178.7 22.58 178.42 23.34 178.42 24.3C178.42 25.26 178.7 26.02 179.28 26.58C179.86 27.14 180.58 27.42 181.44 27.42Z" fill="#171717"/>
  <path d="M199.12 18.18C200.52 18.18 201.7 18.46 202.66 19.02C203.64 19.58 204.34 20.38 204.76 21.42L201.64 22.86C201.46 22.32 201.16 21.9 200.74 21.6C200.34 21.3 199.82 21.14 199.18 21.14C198.38 21.14 197.72 21.42 197.2 21.98C196.7 22.54 196.44 23.3 196.44 24.26C196.44 25.2 196.7 25.94 197.2 26.46C197.72 26.98 198.38 27.24 199.18 27.24C199.84 27.24 200.38 27.08 200.8 26.76C201.22 26.42 201.5 26 201.64 25.5L204.76 26.88C204.32 27.88 203.6 28.68 202.6 29.28C201.62 29.88 200.46 30.18 199.12 30.18C197.76 30.18 196.56 29.92 195.52 29.4C194.48 28.88 193.66 28.14 193.06 27.18C192.48 26.22 192.18 25.08 192.18 23.76C192.18 22.44 192.48 21.3 193.06 20.34C193.66 19.38 194.48 18.64 195.52 18.12C196.56 17.58 197.76 17.32 199.12 17.32V18.18Z" fill="#171717"/>
  <path d="M213.76 31.14C212.38 31.14 211.14 30.88 210.04 30.36C208.96 29.84 208.12 29.1 207.52 28.14C206.92 27.18 206.62 26.02 206.62 24.66C206.62 23.3 206.92 22.14 207.52 21.18C208.12 20.22 208.96 19.48 210.04 18.96C211.14 18.44 212.38 18.18 213.76 18.18C215.14 18.18 216.36 18.44 217.42 18.96C218.5 19.48 219.36 20.22 220 21.18C220.64 22.14 220.96 23.3 220.96 24.66C220.96 26.02 220.64 27.18 220 28.14C219.36 29.1 218.5 29.84 217.42 30.36C216.36 30.88 215.14 31.14 213.76 31.14ZM213.76 27.42C214.62 27.42 215.34 27.14 215.92 26.58C216.5 26.02 216.78 25.26 216.78 24.3C216.78 23.34 216.5 22.58 215.92 22.02C215.34 21.46 214.62 21.18 213.76 21.18C212.9 21.18 212.18 21.46 211.6 22.02C211.02 22.58 210.74 23.34 210.74 24.3C210.74 25.26 211.02 26.02 211.6 26.58C212.18 27.14 212.9 27.42 213.76 27.42Z" fill="#171717"/>
  <path d="M221.78 30.9V15.12H224.78V16.98C225.26 16.34 225.86 15.84 226.58 15.48C227.3 15.12 228.12 14.94 229.04 14.94C229.94 14.94 230.76 15.1 231.48 15.42C232.22 15.74 232.82 16.18 233.28 16.74C233.74 17.3 234.06 17.94 234.26 18.68C234.46 19.42 234.56 20.2 234.56 21.02V30.9H231.08V21.64C231.08 20.82 230.9 20.2 230.54 19.78C230.18 19.34 229.62 19.12 228.84 19.12C228.2 19.12 227.62 19.28 227.1 19.6C226.6 19.92 226.2 20.36 225.9 20.92C225.62 21.46 225.48 22.1 225.48 22.82V30.9H221.78Z" fill="#171717"/>
  <path d="M240.9 13.48C240.16 13.48 239.54 13.3 239.06 12.94C238.58 12.58 238.34 12.04 238.34 11.32C238.34 10.6 238.58 10.06 239.06 9.7C239.54 9.34 240.16 9.16 240.9 9.16C241.64 9.16 242.26 9.34 242.74 9.7C243.22 10.06 243.46 10.6 243.46 11.32C243.46 12.04 243.22 12.58 242.74 12.94C242.26 13.3 241.64 13.48 240.9 13.48ZM238.66 30.9V15.12H243.2V30.9H238.66Z" fill="#171717"/>
  <path d="M253.56 30.9C252.36 30.9 251.36 30.66 250.56 30.18C249.76 29.7 249.16 29.02 248.76 28.14C248.36 27.26 248.16 26.22 248.16 25.02V15.12H252.7V24.42C252.7 25.3 252.9 25.98 253.3 26.46C253.7 26.94 254.3 27.18 255.1 27.18C255.8 27.18 256.36 27.02 256.78 26.7C257.22 26.38 257.54 25.94 257.72 25.38C257.92 24.82 258.02 24.18 258.02 23.46V15.12H262.56V26.04C262.56 26.72 262.66 27.22 262.86 27.54C263.06 27.86 263.36 28.02 263.76 28.02C264 28.02 264.22 28 264.42 27.96C264.64 27.9 264.8 27.86 264.9 27.82L265.38 30.72C265.1 30.84 264.7 30.96 264.18 31.08C263.68 31.2 263.1 31.26 262.46 31.26C261.42 31.26 260.62 31.04 260.06 30.6C259.5 30.14 259.14 29.52 258.96 28.74C258.56 29.42 258 29.98 257.28 30.42C256.56 30.86 255.66 31.08 254.58 31.08L253.56 30.9Z" fill="#171717"/>
</svg> 